<?xml version="1.0" standalone="no"?><!DOCTYPE svg PUBLIC "-//W3C//DTD SVG 1.1//EN" "http://www.w3.org/Graphics/SVG/1.1/DTD/svg11.dtd"><svg t="1648265258717" class="icon" viewBox="0 0 1024 1024" version="1.1" xmlns="http://www.w3.org/2000/svg" p-id="5392" width="32" height="32" xmlns:xlink="http://www.w3.org/1999/xlink"><defs><style type="text/css">@font-face { font-family: "feedback-iconfont"; src: url("//at.alicdn.com/t/font_1031158_u69w8yhxdu.woff2?t=1630033759944") format("woff2"), url("//at.alicdn.com/t/font_1031158_u69w8yhxdu.woff?t=1630033759944") format("woff"), url("//at.alicdn.com/t/font_1031158_u69w8yhxdu.ttf?t=1630033759944") format("truetype"); }
</style></defs><path d="M704 275.5H149.3c-58.8 0-106.7 47.9-106.7 106.7v392.5c0 58.8 47.9 106.7 106.7 106.7h29.9v42.4c0 26 15.5 49.2 39.5 59.1 8 3.3 16.3 4.9 24.6 4.9 16.6 0 32.9-6.5 45.2-18.8l87.6-87.6H704c58.8 0 106.7-47.9 106.7-106.7V382.2c0-58.8-47.9-106.7-106.7-106.7z m21.3 499.2c0 11.8-9.6 21.3-21.3 21.3H358.4c-2.8 0-5.6 0.3-8.4 0.8-1.3 0.3-2.5 0.7-3.7 1.1-1.4 0.4-2.9 0.7-4.3 1.3-1.5 0.6-2.8 1.4-4.2 2.2-1.1 0.6-2.2 1-3.2 1.7-2.4 1.6-4.6 3.4-6.5 5.3l-63.7 63.7v-33.5c0-23.6-19.1-42.7-42.7-42.7h-72.5c-11.8 0-21.3-9.6-21.3-21.3V382.2c0-11.8 9.6-21.3 21.3-21.3H704c11.8 0 21.3 9.6 21.3 21.3v392.5z" fill="#bfbfbf" p-id="5393"></path><path d="M874.7 85.3h-640C175.9 85.3 128 133.2 128 192v21.3c0 23.6 19.1 42.7 42.7 42.7s42.7-19.1 42.7-42.7V192c0-11.8 9.6-21.3 21.3-21.3h640c11.8 0 21.3 9.6 21.3 21.3v433.6c0 11.8-9.6 21.3-21.3 21.3-23.6 0-42.7 19.1-42.7 42.7s19.1 42.7 42.7 42.7c58.8 0 106.7-47.9 106.7-106.7V191.9c-0.1-58.8-47.9-106.6-106.7-106.6z" fill="#bfbfbf" p-id="5394"></path><path d="M631.5 449H221.9c-23.6 0-42.7 19.1-42.7 42.7s19.1 42.7 42.7 42.7h409.6c23.6 0 42.7-19.1 42.7-42.7-0.1-23.6-19.2-42.7-42.7-42.7zM529.1 622.5H221.9c-23.6 0-42.7 19.1-42.7 42.7s19.1 42.7 42.7 42.7h307.2c23.6 0 42.7-19.1 42.7-42.7s-19.2-42.7-42.7-42.7z" fill="#bfbfbf" p-id="5395"></path></svg>